# xmcd
#
# Track frame offsets: 
#        150
#        10729
#        22840
#        34385
#        45424
#        55051
#        70782
#        82728
#        95799
#        108919
#        122413
#        133599
#        145069
#        157221
#        167580
#        175430
#        186042
#        195320
#        211371
#        222980
#        233682
#        244090
#        254581
#        267395
#        278017
#        291284
#
# Disc length: 4011 seconds
#
# Revision: 1
# Processed by: cddbd v1.5.1PL2 Copyright (c) Steve Scherf et al.
# Submitted via: ExactAudioCopy v0.95b1
#
DISCID=6f0fa91a
DTITLE=Osborne Brothers - 1968-1974 Disc 3
DYEAR=1900
DGENRE=Bluegrass
TTITLE0=Color Me Lonely
TTITLE1=Take Me Home Country Roads
TTITLE2=Tears Are No Strangers
TTITLE3=Oh, The Pain Of Loving You
TTITLE4=Unfaithful One
TTITLE5=Ballad Of Forty Dollars
TTITLE6=Tomorrow Never Comes
TTITLE7=Sometimes You Just Canþt Win
TTITLE8=Shelly's Winter Love
TTITLE9=I Wonder Why You Said Goodbye
TTITLE10=Tunnel Of Your Mind
TTITLE11=Eight More Miles To Louisville
TTITLE12=Love Lifted Me
TTITLE13=Stand Beside Me, Behind Me
TTITLE14=Miss You Mississippi
TTITLE15=Teardrops Will Kiss The Morning Dew
TTITLE16=Long Lanky Woman
TTITLE17=Knoxville Girl
TTITLE18=Wash My Face In The Morning Dew
TTITLE19=Love's Gonna Live Here
TTITLE20=Today I Started Loving You Again
TTITLE21=Arkansas
TTITLE22=Fireball Mail
TTITLE23=Midnight Flyer
TTITLE24=How Long Does It Take (To Be A Stranger)
TTITLE25=Blue Heartache
EXTD=
EXTT0=
EXTT1=
EXTT2=
EXTT3=
EXTT4=
EXTT5=
EXTT6=
EXTT7=
EXTT8=
EXTT9=
EXTT10=
EXTT11=
EXTT12=
EXTT13=
EXTT14=
EXTT15=
EXTT16=
EXTT17=
EXTT18=
EXTT19=
EXTT20=
EXTT21=
EXTT22=
EXTT23=
EXTT24=
EXTT25=
PLAYORDER=
